# xmcd
#
# Track frame offsets:
#	150
#	11889
#	26843
#	44473
#	54893
#	72735
#	89203
#	107019
#	126963
#	145173
#
# Disc length: 2209 seconds
#
# Revision: 0
# Processed by: cddbd v1.5.2PL0 Copyright (c) Steve Scherf et al.
# Submitted via: EasyCDDAExtractor 10.5.1.1
#
DISCID=96089f0a
DTITLE=Sie Gubba
DYEAR=2006
DGENRE=Country
TTITLE0=Sånn te kar
TTITLE1=Aldri for seint t Rock`n Roll
TTITLE2=Sånn e livet
TTITLE3=Sommerfestival
TTITLE4=Lynx`n
TTITLE5=Kåmmå på dæ
TTITLE6=Heim alein
TTITLE7=Du va mi
TTITLE8=Der æ kjæm frå
TTITLE9=Odelsguten
EXTD=
EXTT0=
EXTT1=
EXTT2=
EXTT3=
EXTT4=
EXTT5=
EXTT6=
EXTT7=
EXTT8=
EXTT9=
PLAYORDER=
